<svg xmlns="http://www.w3.org/2000/svg" xmlns:xlink="http://www.w3.org/1999/xlink" enable-background="new 0 0 32 32" height="32px" version="1.1" viewBox="0 0 32 32" width="32px" xml:space="preserve"><defs><style>.cls-1,.cls-5{fill:#fff;}.cls-2{fill:#515251;stroke:#000;}.cls-2,.cls-3,.cls-5{stroke-miterlimit:10;}.cls-3{stroke:#020202;fill:url(#linear-gradient);}.cls-4{fill:#db1f26;}.cls-5{stroke:#080707;}</style><linearGradient id="linear-gradient" x1="16.05" y1="7.04" x2="16.05" y2="28.87" gradientUnits="userSpaceOnUse"><stop offset="0" stop-color="#a21e1c"/><stop offset="1" stop-color="#680d0d"/></linearGradient></defs><title>Artboard 8 copy 7</title><path class="cls-1" d="M2.07,5.75H29.93a2,2,0,0,1,2,2V28.17a2,2,0,0,1-2,2H2.07a2,2,0,0,1-2-2V7.78a2,2,0,0,1,2-2Zm-.18-.16"/><path class="cls-2" d="M21.15,1.79H11.5A2.42,2.42,0,0,0,9.08,4.2V7.82H11.5V5.41A1.21,1.21,0,0,1,12.7,4.2h7.24a1.21,1.21,0,0,1,1.21,1.21V7.82h2.42V4.2a2.42,2.42,0,0,0-2.42-2.41Zm-.3.19"/><path class="cls-3" d="M3.18,6.92H28.91a1.84,1.84,0,0,1,1.84,1.84V27.14A1.84,1.84,0,0,1,28.91,29H3.18a1.84,1.84,0,0,1-1.84-1.84V8.76A1.84,1.84,0,0,1,3.18,6.92Zm0,0"/><path class="cls-4" d="M3.75,7.37H28.17a2,2,0,0,1,2,2v1.54a0,0,0,0,1,0,0H1.88a0,0,0,0,1,0,0V9.25A1.88,1.88,0,0,1,3.75,7.37Z"/><path class="cls-5" d="M6.22,29.16H9.89V7.1H6.22ZM22.76,7.1V29.16h3.68V7.1Zm0,0"/></svg>